<svg width="301" height="90" viewBox="0 0 301 90" fill="none" xmlns="http://www.w3.org/2000/svg">
<path d="M131.27 54.5261L135.464 56.6829C134.448 58.0376 133.113 59.1428 131.552 59.9271C129.991 60.747 128.242 61.157 126.455 61.1391C124.443 61.1391 122.468 60.6222 120.775 59.624C119.083 58.608 117.672 57.2177 116.694 55.56C115.678 53.8488 115.189 51.9593 115.189 49.8917C115.189 48.3231 115.49 46.8614 116.073 45.5067C116.656 44.1342 117.465 42.9399 118.481 41.9061C119.496 40.8723 120.738 40.0523 122.092 39.4641C123.465 38.8759 124.969 38.5729 126.474 38.5907C128.317 38.5907 130.01 39.0006 131.571 39.8028C133.132 40.5871 134.467 41.71 135.483 43.0825L131.289 45.2394C130.687 44.5442 129.935 43.9916 129.069 43.6173C128.261 43.243 127.377 43.0469 126.474 43.0469C125.233 43.0469 124.123 43.3677 123.107 44.0094C122.111 44.6333 121.321 45.4711 120.738 46.5049C120.155 47.5388 119.873 48.7152 119.873 49.8917C119.873 51.1037 120.173 52.2267 120.757 53.2784C121.34 54.3122 122.129 55.1322 123.126 55.756C124.123 56.3799 125.27 56.7008 126.474 56.7008C127.414 56.7008 128.298 56.5047 129.145 56.0947C129.991 55.6847 130.706 55.1678 131.289 54.5083L131.27 54.5261ZM150.567 61.157C148.554 61.157 146.579 60.6401 144.887 59.6419C143.194 58.6258 141.783 57.2355 140.805 55.5778C139.79 53.8666 139.301 51.9772 139.301 49.9095C139.301 48.3409 139.602 46.8792 140.185 45.5246C140.768 44.152 141.577 42.9578 142.592 41.9239C143.608 40.8901 144.849 40.0701 146.203 39.4819C147.576 38.8937 149.081 38.5907 150.585 38.6085C152.654 38.6085 154.554 39.1076 156.246 40.1236C157.958 41.1218 159.369 42.53 160.328 44.2055C161.343 45.9167 161.87 47.8061 161.87 49.8917C161.87 51.4424 161.569 52.9041 160.986 54.2587C160.422 55.5956 159.594 56.8077 158.541 57.8594C157.525 58.8754 156.303 59.6953 154.949 60.2836C153.576 60.8718 152.071 61.1748 150.567 61.157ZM150.567 56.7008C151.77 56.7008 152.936 56.3799 153.933 55.756C154.93 55.1322 155.739 54.2766 156.284 53.2784C156.867 52.2445 157.168 51.0859 157.168 49.8917C157.168 48.6974 156.867 47.5209 156.265 46.4693C155.72 45.4711 154.892 44.6155 153.895 43.9916C152.917 43.3677 151.751 43.0469 150.585 43.0469C149.344 43.0469 148.234 43.3677 147.219 43.9916C146.222 44.6155 145.432 45.4533 144.849 46.4871C144.266 47.5388 143.984 48.6974 143.984 49.8917C143.984 51.1572 144.285 52.3158 144.887 53.3319C145.488 54.3479 146.278 55.1856 147.275 55.7917C148.291 56.3977 149.382 56.6829 150.567 56.6829V56.7008ZM166.873 39.1967H171.575V60.5866H166.873V39.1967ZM169.242 35.6674C168.584 35.6674 167.926 35.4357 167.456 35.0079C166.986 34.5801 166.722 33.974 166.741 33.3323C166.741 32.6728 166.986 32.1202 167.456 31.6924C167.945 31.229 168.528 31.0151 169.242 31.0151C169.957 31.0151 170.521 31.2468 171.01 31.6924C171.499 32.1381 171.725 32.6906 171.725 33.3323C171.725 33.974 171.481 34.5623 171.01 35.0079C170.54 35.4535 169.901 35.6852 169.242 35.6674ZM201.309 49.3747V60.5866H196.608V49.4639C196.608 48.2518 196.344 47.1466 195.799 46.1663C195.31 45.2037 194.558 44.3838 193.617 43.7955C192.696 43.1895 191.605 42.8865 190.476 42.9043C189.31 42.9043 188.276 43.2073 187.392 43.7955C186.508 44.4016 185.793 45.2215 185.342 46.1663C184.853 47.2001 184.608 48.3231 184.627 49.4639V60.5866H179.925V39.1967H184.627V42.0844C185.361 41.0505 186.339 40.1771 187.467 39.5354C188.577 38.9115 189.837 38.5907 191.229 38.5907C193.26 38.5907 195.028 39.0898 196.514 40.0701C198.018 41.0683 199.241 42.4052 200.031 43.9916C200.877 45.6137 201.309 47.414 201.309 49.3747ZM215.077 60.9966C213.892 60.9253 212.726 60.6935 211.597 60.3192C210.525 59.9627 209.51 59.428 208.626 58.7506C207.817 58.1089 207.159 57.3068 206.726 56.3977L210.713 54.7757C210.901 55.1678 211.24 55.5421 211.729 55.9165C212.218 56.2908 212.801 56.5938 213.459 56.8434C214.117 57.0751 214.813 57.182 215.528 57.182C216.186 57.182 216.863 57.0929 217.484 56.8968C218.067 56.7186 218.575 56.4156 218.989 56.0056C219.384 55.6134 219.59 55.0965 219.572 54.5796C219.572 53.9557 219.346 53.4745 218.895 53.118C218.406 52.7436 217.86 52.4584 217.239 52.298C216.581 52.1198 215.923 51.9415 215.246 51.7633C213.854 51.4781 212.481 51.0503 211.183 50.4799C209.961 49.9273 209.002 49.2143 208.268 48.3587C207.554 47.4853 207.177 46.4336 207.177 45.1681C207.177 43.7955 207.554 42.6191 208.325 41.6209C209.115 40.6049 210.187 39.8028 211.409 39.2858C212.688 38.7511 214.08 38.4659 215.49 38.4659C217.296 38.4659 218.951 38.8224 220.456 39.5532C221.96 40.284 223.107 41.2822 223.916 42.5478L220.192 44.6511C219.948 44.2055 219.609 43.8134 219.177 43.4925C218.706 43.136 218.199 42.8686 217.634 42.6726C217.07 42.4587 216.468 42.3339 215.848 42.3161C215.114 42.2804 214.4 42.3696 213.704 42.5656C213.102 42.726 212.575 43.0291 212.143 43.4569C211.748 43.8668 211.56 44.4016 211.56 45.0433C211.56 45.685 211.785 46.1484 212.255 46.4514C212.726 46.7545 213.309 46.9862 214.023 47.1823C214.738 47.3605 215.49 47.5744 216.243 47.8061C217.578 48.1983 218.838 48.6974 220.004 49.2856C221.17 49.856 222.129 50.569 222.844 51.4068C223.559 52.2445 223.916 53.2784 223.879 54.4905C223.897 55.7739 223.446 57.0216 222.6 58.0198C221.753 59.0358 220.662 59.8023 219.308 60.337C217.954 60.8718 216.525 61.0857 215.001 60.9966H215.077ZM250.736 49.4104V60.6044H246.034V49.4995C246.034 48.2874 245.771 47.1823 245.225 46.1841C244.736 45.2394 244.022 44.4194 243.1 43.8134C242.235 43.243 241.2 42.9221 240.147 42.9399C238.981 42.9399 237.965 43.2251 237.138 43.8134C236.31 44.4016 235.671 45.1859 235.22 46.1841C234.768 47.2357 234.542 48.3587 234.561 49.4995V60.6044H229.841V28.5196H234.542V41.71C235.182 40.5514 236.009 39.7493 237.025 39.3215C238.06 38.858 239.244 38.6442 240.599 38.6442C242.63 38.6442 244.398 39.1432 245.902 40.1236C247.407 41.104 248.573 42.423 249.419 44.0629C250.266 45.685 250.698 47.4853 250.736 49.4282V49.4104ZM257.055 39.2145H261.757V60.6044H257.055V39.2145ZM259.425 35.6852C258.767 35.6852 258.108 35.4535 257.638 35.0257C257.168 34.5979 256.905 33.9919 256.924 33.3502C256.924 32.6906 257.168 32.1381 257.638 31.7103C258.127 31.2468 258.71 31.0329 259.425 31.0329C260.14 31.0329 260.704 31.2647 261.193 31.7103C261.682 32.1559 261.908 32.7085 261.908 33.3502C261.908 33.9919 261.663 34.5801 261.193 35.0257C260.723 35.4713 260.083 35.703 259.425 35.6852ZM276.483 34.3662V39.2145H282.84V43.6708H276.483V60.6044H271.782V43.6708H269.092V39.2145H271.782V34.3662C271.782 33.1897 272.082 32.1381 272.684 31.1755C273.286 30.213 274.095 29.4287 275.092 28.8583C276.126 28.2879 277.311 27.9849 278.496 28.0027C279.399 28.0027 280.283 28.1809 281.129 28.5196C281.994 28.8583 282.746 29.393 283.423 30.106L280.057 33.2432C279.888 32.9937 279.643 32.7798 279.361 32.6728C279.098 32.5302 278.797 32.4589 278.477 32.4589C277.932 32.4589 277.424 32.655 277.029 33.0115C276.653 33.368 276.427 33.8493 276.446 34.3662H276.483ZM300.971 43.6708H296.231V60.6044H291.511V43.6708H287.937V39.2145H291.53V32.4946H296.194V39.2145H300.952V43.6708H300.971Z" fill="#001B2E"/>
<path d="M32.4546 44.5622C32.4546 49.8384 34.6927 54.9006 38.6987 58.6439C42.7236 62.3871 48.1402 64.4904 53.7824 64.4726V86.8606C53.7824 87.4132 53.5567 87.948 53.143 88.3579C52.7292 88.7679 52.1838 88.9996 51.582 89.0353C50.6228 89.0888 49.6636 89.1244 48.7044 89.1066C36.0469 89.1066 23.8972 84.4186 14.9447 76.0588C5.99233 67.7167 0.970703 56.3801 0.970703 44.5622C0.970703 32.7443 6.01114 21.4077 14.9636 13.0478C23.916 4.68794 36.0657 0 48.7232 0C49.6824 0 50.6416 0.0178249 51.6008 0.0891244C52.2026 0.124774 52.748 0.374323 53.1618 0.76647C53.5756 1.17644 53.8012 1.71119 53.8012 2.26376V24.6518C50.9989 24.6518 48.2154 25.1687 45.6387 26.1669C43.0621 27.1651 40.7112 28.6268 38.7176 30.4805C36.7428 32.3165 35.1629 34.5268 34.0909 36.9332C33.0189 39.3395 32.4734 41.9419 32.4734 44.5444L32.4546 44.5622ZM83.1599 70.4261C83.442 70.034 83.7429 69.6418 84.0251 69.2318C84.3072 68.8219 84.4388 68.3406 84.4388 67.8593V21.2651C84.4388 20.7838 84.3072 20.3025 84.0251 19.8926C83.7429 19.4826 83.4608 19.0904 83.1599 18.6983C82.0315 17.1832 79.925 18.1101 79.925 20.1421V69.0001C79.925 71.0143 82.0315 71.9412 83.1599 70.4261ZM90.4949 34.2594V54.8828C90.4949 57.3783 93.1656 57.8952 93.7298 55.5245C95.4225 48.3054 95.4225 40.819 93.7298 33.5999C93.1656 31.1935 90.4949 31.7283 90.4949 34.2416V34.2594ZM69.3363 8.12815V81.0141C69.3363 82.6183 70.7657 83.67 71.9882 82.9748L72.8345 82.4757C73.5116 82.0301 73.8878 81.2993 73.8501 80.515V8.59159C73.8878 7.82512 73.4928 7.07648 72.8345 6.64868C72.5524 6.48826 72.2703 6.31001 71.9882 6.14958C70.7657 5.45441 69.3363 6.50608 69.3363 8.11032V8.12815ZM58.7665 3.06588V86.0585C58.7665 87.3954 59.8009 88.4292 60.9293 88.2153L61.7757 88.0371C62.6596 87.8588 63.2803 86.9498 63.2803 85.8981V3.24413C63.2803 2.19246 62.6596 1.28339 61.7757 1.10514C61.4936 1.03384 61.2114 0.980368 60.9293 0.926894C59.8009 0.712995 58.7665 1.72901 58.7665 3.0837V3.06588Z" fill="#001B2E"/>
</svg>
