<svg width="300" height="115" viewBox="0 0 300 115" fill="none" xmlns="http://www.w3.org/2000/svg">
<path d="M57.5626 0C25.7735 0 0 25.7454 0 57.5C0 89.2546 25.7735 115 57.5626 115C89.3518 115 115.125 89.2546 115.125 57.5C115.125 25.7454 89.36 0 57.5626 0ZM62.2688 9.68008V19.4583C60.7219 19.2702 59.1586 19.1639 57.5626 19.1639C55.8275 19.1639 54.1333 19.2866 52.4636 19.5155V9.72913C54.1414 9.54927 55.8438 9.45933 57.5626 9.45933C59.1504 9.45933 60.7219 9.54109 62.2688 9.68826V9.68008ZM9.46145 57.5C9.46145 36.0959 23.4736 17.9785 42.8221 11.7567V22.099C28.9409 27.8711 19.1848 41.5491 19.1848 57.5C19.1848 73.4509 28.9409 87.1289 42.8221 92.901V103.243C23.4654 97.0215 9.46145 78.8959 9.46145 57.5ZM52.4636 105.279V95.4927C54.1333 95.7134 55.8357 95.8442 57.5626 95.8442C59.1586 95.8442 60.7301 95.7379 62.2688 95.5499V105.328C60.7219 105.475 59.1504 105.557 57.5626 105.557C55.8357 105.557 54.1333 105.459 52.4636 105.287V105.279ZM71.9185 103.374V93.0563C84.5801 87.9546 93.8943 76.296 95.6376 62.291H76.1909C74.0547 70.5812 66.5248 76.7048 57.5626 76.7048C46.939 76.7048 38.3287 68.1039 38.3287 57.4918C38.3287 46.8797 46.939 38.2788 57.5626 38.2788C66.5084 38.2788 74.0301 44.3861 76.1827 52.6518H95.6294C93.8697 38.6631 84.5638 27.029 71.9103 21.9273V11.6096C91.4716 17.7087 105.664 35.9406 105.664 57.4918C105.664 79.0431 91.4634 97.275 71.9103 103.374H71.9185Z" fill="#001B2E"/>
<path d="M131.666 33.4062C131.666 31.3786 132.026 29.4327 132.738 27.5687C133.45 25.7046 134.498 24.0695 135.873 22.6632C137.248 21.257 138.95 20.1287 140.98 19.2785C143.01 18.4282 145.343 18.0112 147.978 18.0112C151.587 18.0112 154.608 18.7634 157.038 20.2677C159.469 21.7721 161.278 23.7097 162.489 26.0725L152.046 29.2283C151.031 27.7649 149.656 27.0291 147.921 27.0291C146.456 27.0291 145.212 27.585 144.197 28.6887C143.182 29.8006 142.674 31.3704 142.674 33.398C142.674 35.4256 143.182 36.9953 144.197 38.1072C145.212 39.2191 146.456 39.7751 147.921 39.7751C149.656 39.7751 151.023 39.0392 152.046 37.5758L162.489 40.7316C161.286 43.1026 159.469 45.0402 157.038 46.5364C154.608 48.0407 151.587 48.7929 147.978 48.7929C145.343 48.7929 143.01 48.3678 140.98 47.5257C138.95 46.6836 137.248 45.5553 135.873 44.1409C134.498 42.7347 133.45 41.0913 132.738 39.2355C132.026 37.3714 131.666 35.4256 131.666 33.398V33.4062Z" fill="#001B2E"/>
<path d="M183.77 27.7077C181.699 27.7077 179.817 27.9366 178.122 28.3862C176.428 28.8359 175.168 29.5881 174.341 30.6427V48.2369H163.619V18.5754H173.441V24.2166C174.497 22.2217 175.806 20.6929 177.361 19.6219C178.916 18.5508 180.61 18.0112 182.411 18.0112C183.123 18.0112 183.573 18.0276 183.77 18.0685V27.7077Z" fill="#001B2E"/>
<path d="M184.621 51.2291C186.348 51.8668 187.821 52.1857 189.024 52.1857C191.316 52.1857 192.585 50.8694 192.806 48.2368L182.026 18.5752H193.035L198.682 39.1617L203.257 18.5752H213.251L203.2 51.7933C202.75 53.2567 202.111 54.5812 201.277 55.7667C200.45 56.9522 199.46 57.966 198.314 58.8162C197.168 59.6583 195.891 60.3124 194.5 60.7621C193.108 61.2117 191.66 61.4406 190.154 61.4406C188.23 61.4406 186.389 61.0809 184.621 60.3696V51.2373V51.2291Z" fill="#001B2E"/>
<path d="M233.901 48.8011C231.757 48.8011 229.891 48.3759 228.311 47.5338C226.731 46.6917 225.504 45.4572 224.644 43.8384V60.2471H213.914V18.5754H223.228V23.0311C224.284 21.4123 225.577 20.1778 227.124 19.3112C228.663 18.4445 230.57 18.0112 232.829 18.0112C234.785 18.0112 236.61 18.3955 238.304 19.164C239.999 19.9325 241.447 20.9954 242.65 22.3525C243.854 23.7097 244.803 25.3203 245.499 27.2008C246.194 29.0812 246.546 31.1088 246.546 33.2917C246.546 35.4746 246.227 37.5676 245.589 39.4644C244.95 41.3611 244.066 43.0045 242.937 44.4025C241.807 45.7924 240.473 46.8716 238.926 47.6483C237.379 48.4168 235.71 48.8011 233.901 48.8011ZM230.177 39.7751C230.971 39.7751 231.691 39.6034 232.354 39.2682C233.009 38.933 233.574 38.4588 234.048 37.8619C234.515 37.2569 234.891 36.562 235.178 35.7771C235.456 34.9841 235.603 34.142 235.603 33.2426C235.603 31.3622 235.063 29.8579 233.991 28.7296C232.919 27.6014 231.495 27.0372 229.727 27.0372C227.73 27.0372 226.036 28.051 224.644 30.0786V35.213C225.168 36.5293 225.945 37.6167 226.96 38.4833C227.975 39.3499 229.047 39.7832 230.177 39.7832V39.7751Z" fill="#001B2E"/>
<path d="M268.677 46.6017C267.171 47.2394 265.559 47.779 263.848 48.2123C262.138 48.6457 260.452 48.8582 258.799 48.8582C257.595 48.8582 256.45 48.7111 255.353 48.4086C254.264 48.1061 253.307 47.6155 252.505 46.9451C251.694 46.2665 251.056 45.3835 250.589 44.2962C250.115 43.2088 249.885 41.8516 249.885 40.2328V26.6447H246.219V18.5834H249.885V9.27945H260.616V18.5834H266.427V26.6447H260.616V36.4556C260.616 37.4367 260.82 38.1153 261.238 38.5159C261.647 38.9083 262.212 39.1046 262.932 39.1046C263.456 39.1046 264.061 39.0228 264.741 38.8511C265.42 38.6794 266.099 38.4505 266.77 38.148L268.694 46.6099L268.677 46.6017Z" fill="#001B2E"/>
<path d="M283.745 48.8011C281.077 48.8011 278.728 48.3759 276.715 47.5338C274.701 46.6917 273.007 45.5635 271.632 44.1491C270.257 42.7428 269.226 41.0995 268.53 39.2436C267.834 37.3796 267.482 35.4337 267.482 33.4062C267.482 31.3786 267.826 29.4327 268.53 27.5687C269.226 25.7046 270.265 24.0695 271.632 22.6632C273.007 21.257 274.701 20.1287 276.715 19.2785C278.728 18.4364 281.069 18.0112 283.745 18.0112C286.422 18.0112 288.713 18.4364 290.743 19.2785C292.773 20.1206 294.475 21.2488 295.85 22.6632C297.225 24.0695 298.257 25.7046 298.952 27.5687C299.648 29.4327 300 31.3786 300 33.4062C300 35.4337 299.648 37.3796 298.952 39.2436C298.257 41.1077 297.217 42.7428 295.85 44.1491C294.475 45.5553 292.773 46.6836 290.743 47.5338C288.713 48.3759 286.381 48.8011 283.745 48.8011ZM278.499 33.4062C278.499 35.401 278.99 36.9626 279.964 38.0909C280.946 39.2191 282.207 39.7832 283.745 39.7832C285.284 39.7832 286.553 39.2191 287.527 38.0909C288.509 36.9626 288.992 35.401 288.992 33.4062C288.992 31.4113 288.501 29.8497 287.527 28.7215C286.544 27.5932 285.284 27.0291 283.745 27.0291C282.207 27.0291 280.938 27.5932 279.964 28.7215C278.982 29.8497 278.499 31.4113 278.499 33.4062Z" fill="#001B2E"/>
<path d="M150.467 96.1058C148.019 96.1058 145.867 95.5008 144.001 94.299C142.135 93.0971 140.662 91.5764 139.565 89.7287V107.552H134.597V66.1008H139V71.6276C140.162 69.8208 141.685 68.3655 143.543 67.2536C145.409 66.1417 147.463 65.5939 149.722 65.5939C151.752 65.5939 153.618 66.0109 155.312 66.8366C157.006 67.6624 158.471 68.7825 159.715 70.1887C160.959 71.5949 161.925 73.2219 162.621 75.0696C163.317 76.9092 163.669 78.8305 163.669 80.8253C163.669 82.9347 163.349 84.9132 162.711 86.7773C162.073 88.6413 161.164 90.252 160.002 91.6255C158.831 92.999 157.44 94.0864 155.828 94.8958C154.207 95.7052 152.423 96.1058 150.467 96.1058ZM148.944 91.8217C150.409 91.8217 151.735 91.511 152.922 90.8897C154.109 90.2683 155.124 89.4426 155.967 88.4042C156.818 87.3741 157.465 86.1968 157.915 84.8805C158.365 83.5642 158.594 82.2152 158.594 80.8172C158.594 79.3537 158.332 77.9475 157.8 76.6148C157.276 75.2822 156.556 74.1131 155.656 73.1156C154.755 72.1182 153.691 71.3333 152.464 70.7446C151.244 70.1642 149.91 69.8698 148.486 69.8698C147.586 69.8698 146.653 70.0497 145.695 70.4094C144.737 70.7692 143.829 71.2352 142.986 71.8157C142.143 72.3961 141.406 73.0911 140.784 73.9005C140.162 74.7099 139.761 75.5602 139.573 76.4677V84.8723C139.99 85.8534 140.514 86.7609 141.153 87.6112C141.791 88.4615 142.528 89.1891 143.354 89.8105C144.181 90.4318 145.065 90.9224 146.006 91.2739C146.947 91.6337 147.921 91.8135 148.944 91.8135V91.8217Z" fill="#001B2E"/>
<path d="M167.621 54.3687H172.59V87.9219C172.59 89.0093 172.884 89.8677 173.465 90.4891C174.046 91.1104 174.865 91.4211 175.921 91.4211C176.33 91.4211 176.821 91.3557 177.386 91.2249C177.95 91.0941 178.474 90.9306 178.965 90.7425L179.751 94.7486C178.924 95.0838 177.942 95.37 176.813 95.5907C175.683 95.8197 174.685 95.9259 173.817 95.9259C171.902 95.9259 170.38 95.3782 169.275 94.2908C168.162 93.2034 167.613 91.6746 167.613 89.7206V54.3605L167.621 54.3687Z" fill="#001B2E"/>
<path d="M188.967 96.1058C187.575 96.1058 186.274 95.8687 185.071 95.4027C183.868 94.9367 182.82 94.2826 181.936 93.4569C181.052 92.6311 180.357 91.6582 179.849 90.5545C179.342 89.4426 179.088 88.2326 179.088 86.9163C179.088 85.6 179.391 84.3327 179.988 83.2208C180.586 82.1089 181.445 81.1605 182.558 80.3757C183.671 79.5908 184.989 78.9694 186.511 78.5116C188.034 78.0538 189.703 77.833 191.504 77.833C192.936 77.833 194.385 77.9638 195.85 78.2255C197.315 78.4871 198.616 78.8468 199.746 79.2965V76.9255C199.746 74.5218 199.067 72.6332 197.716 71.2597C196.358 69.8862 194.442 69.1994 191.954 69.1994C188.983 69.1994 185.857 70.344 182.583 72.6414L180.946 69.4284C184.743 66.8693 188.566 65.5939 192.404 65.5939C196.243 65.5939 199.304 66.6241 201.465 68.6925C203.625 70.761 204.714 73.6716 204.714 77.4324V89.4426C204.714 90.6117 205.238 91.2085 206.294 91.2494V95.5335C205.77 95.6071 205.336 95.6643 204.992 95.7052C204.657 95.7379 204.297 95.7624 203.92 95.7624C202.938 95.7624 202.16 95.4681 201.579 94.8876C200.998 94.3071 200.646 93.604 200.532 92.7701L200.417 90.6853C199.099 92.4512 197.438 93.8002 195.424 94.7159C193.411 95.6398 191.258 96.0976 188.959 96.0976L188.967 96.1058ZM190.268 92.3858C192.036 92.3858 193.681 92.0588 195.212 91.3966C196.734 90.7425 197.896 89.8677 198.682 88.7722C199.394 88.0609 199.754 87.3251 199.754 86.5729V82.2316C197.348 81.2914 194.843 80.8253 192.249 80.8253C189.654 80.8253 187.739 81.3486 186.176 82.4033C184.613 83.4579 183.835 84.8315 183.835 86.5238C183.835 87.3496 183.99 88.1263 184.318 88.8376C184.637 89.5489 185.087 90.1702 185.677 90.7016C186.258 91.2249 186.945 91.6418 187.739 91.9443C188.533 92.2469 189.376 92.394 190.276 92.394L190.268 92.3858Z" fill="#001B2E"/>
<path d="M208.103 92.3204L226.96 69.7063H208.61V66.0926H232.264V69.3057L213.521 91.9198H232.321V95.5334H208.103V92.3204Z" fill="#001B2E"/>
<path d="M243.559 96.1058C242.167 96.1058 240.866 95.8687 239.663 95.4027C238.46 94.9367 237.412 94.2826 236.528 93.4569C235.644 92.6311 234.948 91.6582 234.441 90.5545C233.933 89.4426 233.68 88.2326 233.68 86.9163C233.68 85.6 233.982 84.3327 234.58 83.2208C235.186 82.1089 236.037 81.1605 237.15 80.3757C238.263 79.5826 239.581 78.9694 241.103 78.5116C242.625 78.0538 244.295 77.833 246.096 77.833C247.528 77.833 248.977 77.9638 250.442 78.2255C251.907 78.4871 253.208 78.8468 254.338 79.2965V76.9255C254.338 74.5218 253.658 72.6332 252.308 71.2597C250.949 69.8862 249.034 69.1994 246.546 69.1994C243.575 69.1994 240.448 70.344 237.175 72.6414L235.538 69.4284C239.335 66.8693 243.157 65.5939 246.996 65.5939C250.835 65.5939 253.896 66.6241 256.057 68.6925C258.217 70.761 259.306 73.6716 259.306 77.4324V89.4426C259.306 90.6117 259.83 91.2085 260.885 91.2494V95.5335C260.362 95.6071 259.928 95.6643 259.584 95.7052C259.249 95.7379 258.888 95.7624 258.512 95.7624C257.53 95.7624 256.752 95.4681 256.171 94.8876C255.59 94.3071 255.238 93.604 255.123 92.7701L255.009 90.6853C253.691 92.4512 252.021 93.8002 250.016 94.7159C248.003 95.6398 245.85 96.0976 243.55 96.0976L243.559 96.1058ZM244.86 92.3858C246.628 92.3858 248.273 92.0588 249.803 91.3966C251.326 90.7425 252.488 89.8677 253.274 88.7722C253.986 88.0609 254.346 87.3251 254.346 86.5729V82.2316C251.94 81.2914 249.435 80.8253 246.841 80.8253C244.246 80.8253 242.331 81.3486 240.768 82.4033C239.204 83.4579 238.427 84.8315 238.427 86.5238C238.427 87.3496 238.59 88.1263 238.91 88.8376C239.229 89.5489 239.679 90.1702 240.268 90.7016C240.849 91.2249 241.537 91.6418 242.331 91.9443C243.125 92.2469 243.968 92.394 244.868 92.394L244.86 92.3858Z" fill="#001B2E"/>
</svg>
