<svg width="47" height="35" viewBox="0 0 47 35" fill="none" xmlns="http://www.w3.org/2000/svg">
<g clip-path="url(#clip0_10_255)">
<path d="M39.3014 2.9312C36.2543 1.54369 33.0358 0.555728 29.7296 0C29.2771 0.806351 28.8684 1.6345 28.5035 2.4808C24.9821 1.95413 21.4023 1.95413 17.8808 2.4808C17.5159 1.6345 17.1072 0.806351 16.6547 0C13.3486 0.562993 10.1264 1.55095 7.07568 2.93846C1.01808 11.8592 -0.62404 20.5583 0.197019 29.134C3.744 31.7419 7.71428 33.7287 11.9363 35C12.8851 33.7287 13.7281 32.3775 14.4506 30.9646C13.0785 30.4561 11.7539 29.8241 10.4913 29.0831C10.8234 28.8434 11.1481 28.5964 11.462 28.3567C18.8953 31.8363 27.5 31.8363 34.9333 28.3567C35.2508 28.6146 35.5756 28.8616 35.904 29.0831C34.6414 29.8277 33.3131 30.4561 31.9374 30.9682C32.6599 32.3812 33.4992 33.7287 34.4516 35C38.6774 33.7324 42.6513 31.7492 46.1983 29.1376C47.1616 19.1926 44.5525 10.5734 39.3014 2.9312ZM15.4906 23.86C13.2026 23.86 11.3123 21.7933 11.3123 19.2507C11.3123 16.7082 13.1369 14.6233 15.4833 14.6233C17.8297 14.6233 19.7054 16.7082 19.6653 19.2507C19.6251 21.7933 17.8224 23.86 15.4906 23.86ZM30.9047 23.86C28.613 23.86 26.73 21.7933 26.73 19.2507C26.73 16.7082 28.5546 14.6233 30.9047 14.6233C33.2547 14.6233 35.1158 16.7082 35.0756 19.2507C35.0355 21.7933 33.2365 23.86 30.9047 23.86Z" fill="#001B2E"/>
</g>
<defs>
<clipPath id="clip0_10_255">
<rect width="46.3953" height="35" fill="white"/>
</clipPath>
</defs>
</svg>
