<svg width="42" height="40" viewBox="0 0 42 40" fill="none" xmlns="http://www.w3.org/2000/svg">
<path d="M41.0024 37.2109C38.2344 38.469 35.0723 38.7975 32.0806 38.1322C29.1789 37.4864 26.6346 35.9916 24.68 33.7968C24.8713 33.9276 25.0684 34.0543 25.271 34.1754C26.9428 35.1719 28.8003 35.6729 30.6579 35.6729C32.3085 35.6729 33.9606 35.2777 35.4832 34.4816C35.5916 34.4259 35.6986 34.3674 35.8055 34.3076L35.04 32.977C34.9471 33.0299 34.8542 33.08 34.7599 33.1287C32.0088 34.5665 28.7609 34.469 26.0703 32.8657C23.5274 31.35 21.9316 28.7864 21.7009 25.9081C24.2592 25.7425 32.2734 24.7182 38.6354 18.4273C38.793 18.27 38.9492 18.1113 39.1012 17.9527C40.6717 16.3104 41.4189 14.3591 41.2613 12.309C41.122 10.4997 40.2805 8.74739 38.8901 7.3723C37.5012 5.99722 35.7281 5.16493 33.9001 5.02714C31.9849 4.88239 30.1541 5.50313 28.5766 6.82533C28.4049 4.78775 27.5549 3.06889 26.097 1.83159C24.7067 0.649965 22.8562 0 20.8917 0C18.9272 0 17.0781 0.649965 15.6864 1.83159C14.2299 3.06889 13.3785 4.78775 13.2082 6.82533C11.6307 5.50313 9.79993 4.88239 7.8847 5.02714C6.0553 5.16493 4.2836 5.99722 2.89326 7.3723C1.50292 8.74739 0.661397 10.501 0.522082 12.309C0.363065 14.3591 1.1103 16.3104 2.68218 17.9527C2.83416 18.1127 2.98895 18.27 3.14797 18.4273C9.50723 24.7182 17.5214 25.7411 20.0797 25.9081C19.8504 28.7864 18.2532 31.35 15.7103 32.8657C13.0197 34.469 9.77179 34.5678 7.02066 33.1287C6.92638 33.08 6.8335 33.0299 6.74062 32.977L5.97509 34.3076C6.08204 34.3674 6.18899 34.4259 6.29734 34.4816C7.81996 35.2777 9.47064 35.6729 11.1227 35.6729C12.9803 35.6729 14.8364 35.1719 16.5096 34.1754C16.7122 34.0557 16.9092 33.929 17.1006 33.7968C15.146 35.9916 12.6017 37.4864 9.70002 38.1322C6.70825 38.7989 3.54621 38.4704 0.778197 37.2109L0 38.5442C2.06862 39.5073 4.33989 40 6.62101 40C7.76649 40 8.91338 39.8761 10.0392 39.6256C13.5094 38.8532 16.5223 36.9882 18.7485 34.2352C19.2692 33.5922 19.7223 32.9019 20.1079 32.1795V40H21.6558V32.1531C22.0456 32.8852 22.503 33.5852 23.0293 34.2352C25.2569 36.9882 28.2684 38.8518 31.7386 39.6256C32.8644 39.8761 34.0113 40 35.1568 40C37.4379 40 39.7092 39.5073 41.7778 38.5442L41.0024 37.2109ZM3.80655 16.9033C1.01461 13.9847 1.94197 10.4802 3.98668 8.4579C5.12372 7.33333 6.72233 6.55115 8.42507 6.55115C9.78586 6.55115 11.2142 7.0508 12.5271 8.27975C12.6777 8.42032 12.8269 8.56367 12.976 8.7112C13.0914 8.82672 13.204 8.94363 13.3152 9.06054L14.7843 10.5943L14.728 8.46903C14.7238 8.31315 14.7196 8.15588 14.7196 7.99722C14.7196 7.78845 14.7224 7.58246 14.728 7.37787C14.8392 3.36117 18.0027 1.53236 20.8931 1.53236C23.7836 1.53236 26.9456 3.36256 27.0582 7.37787C27.0638 7.58385 27.0666 7.78984 27.0666 7.99722C27.0666 8.16006 27.061 8.3215 27.0568 8.48156L26.9991 10.5943L28.4738 9.05637C28.5836 8.94085 28.6934 8.82533 28.8088 8.7112C28.9579 8.56367 29.1071 8.42032 29.2577 8.27975C32.2072 5.51983 35.7506 6.43702 37.7953 8.45929C39.84 10.4802 40.7688 13.9861 37.9769 16.9033C37.8347 17.0522 37.6898 17.1997 37.5406 17.3472C30.496 24.3132 20.986 24.412 20.8917 24.412C20.7974 24.412 11.3043 24.3312 4.24279 17.3472C4.09363 17.1997 3.94868 17.0522 3.80655 16.9033Z" fill="#001B2E"/>
<path d="M18.0171 16.0139C18.4829 16.5191 18.7587 17.1496 18.7587 17.8315H19.8845C19.8845 15.5587 17.7483 13.7104 15.1224 13.7104C12.4965 13.7104 10.3604 15.5601 10.3604 17.8315H11.4861C11.4861 16.1725 13.1171 14.8239 15.1224 14.8239C15.2941 14.8239 15.4644 14.835 15.6304 14.8531C15.1337 15.1273 14.7973 15.6506 14.7973 16.2532C14.7973 17.1384 15.5221 17.8552 16.4171 17.8552C17.3121 17.8552 18.0368 17.1384 18.0368 16.2532C18.0368 16.1711 18.0283 16.0918 18.0171 16.0139Z" fill="#001B2E"/>
<path d="M26.6703 14.8239C26.8434 14.8239 27.0122 14.835 27.1783 14.8545C26.6815 15.1287 26.3466 15.652 26.3466 16.2532C26.3466 17.1384 27.0713 17.8552 27.9663 17.8552C28.8613 17.8552 29.586 17.1384 29.586 16.2532C29.586 16.1725 29.5776 16.0932 29.5663 16.0153C30.0307 16.5205 30.3065 17.1496 30.3065 17.8315H31.4323C31.4323 15.5587 29.2962 13.7104 26.6703 13.7104C24.0444 13.7104 21.9082 15.5601 21.9082 17.8315H23.034C23.034 16.1725 24.665 14.8239 26.6703 14.8239Z" fill="#001B2E"/>
<path d="M24.0048 20.2074L23.0169 19.6743C22.6355 20.3646 21.7954 20.8114 20.8737 20.8114C19.952 20.8114 19.1119 20.3646 18.7305 19.6743L17.7412 20.2074C18.3154 21.2498 19.5453 21.9248 20.8723 21.9248C22.1993 21.9248 23.4292 21.2498 24.0048 20.2074Z" fill="#001B2E"/>
</svg>
