<svg width="300" height="62" viewBox="0 0 300 62" fill="none" xmlns="http://www.w3.org/2000/svg">
<path d="M1.23452 61.0546C0.654203 61.0546 0.158513 60.6435 0.0315675 60.0511C-0.0984002 59.4557 0.17967 58.9056 0.741856 58.6517C5.76828 56.3637 7.18584 54.2932 7.23117 53.4318C7.23117 53.3351 7.22513 53.0238 6.57529 53.0238C5.99799 53.0238 5.20005 53.2928 4.54417 53.7069L3.18404 54.5562C3.05709 54.6348 2.91504 54.6771 2.76996 54.6771C2.507 54.6771 2.25311 54.5381 2.11105 54.3114C1.96597 54.0847 1.95086 53.8157 2.06571 53.5678C3.33214 50.7086 6.58134 44.4459 8.08654 42.8168C9.44969 41.4537 11.2541 40.7071 13.1795 40.7071C13.9562 40.7071 14.7209 40.831 15.4554 41.0758L17.018 39.3772L16.6644 38.7606C16.4528 38.3919 16.3833 37.9566 16.471 37.5425C16.5103 37.3521 16.5647 37.1133 16.6281 36.8292C16.3652 36.8141 16.1022 36.8081 15.8393 36.8081C12.3573 36.8081 9.03259 38.0564 6.94101 40.1479C6.43021 40.6587 5.96172 41.2179 5.55066 41.8043C5.327 42.1246 4.96127 42.3151 4.57137 42.3151C4.25401 42.3151 3.95176 42.1911 3.72809 41.9645L2.08385 40.0845C1.836 39.8003 1.68488 39.4437 1.65767 39.078C1.35845 34.8646 2.89992 30.7358 5.88918 27.7466C8.5913 25.0445 12.3573 23.4939 16.2231 23.4939C17.9036 23.4939 19.5509 23.778 21.1196 24.3402C21.7452 23.0557 22.4162 21.7983 23.1144 20.5953C25.1002 17.1799 27.3762 14.1211 29.8758 11.5037C32.989 8.24539 36.7943 5.45562 40.8928 3.43356C40.9109 3.41845 40.9321 3.40334 40.9563 3.39125L41.6212 3.07993C45.8044 1.12135 50.2051 0 53.6992 0C54.5787 0 55.3978 0.0725401 56.1292 0.211575C57.3896 0.453376 58.3961 0.894661 59.1215 1.52636L59.1941 1.58681C59.2424 1.63215 59.2727 1.66238 59.3029 1.6926L59.1094 1.92836L59.3392 1.7319C59.3694 1.76212 59.4026 1.79537 59.4328 1.82862C59.4631 1.86186 59.4812 1.88302 59.4963 1.90116C62.008 4.78462 61.3582 12.1474 57.9579 19.4135L57.6435 20.0845C57.6314 20.1087 57.6193 20.1299 57.6012 20.151C55.5792 24.2435 52.7894 28.0519 49.5311 31.162C46.9076 33.6677 43.8488 35.9436 40.4394 37.9264C39.2395 38.6246 37.9791 39.2956 36.6945 39.9212C38.5897 45.2227 37.2658 51.174 33.2882 55.1516C30.5377 57.9051 26.8835 59.4194 23.0026 59.4194C22.655 59.4194 22.3044 59.4073 21.9568 59.3831C21.5941 59.359 21.2375 59.2048 20.9503 58.957L19.0854 57.3278C18.8195 57.0619 18.6955 56.7173 18.7258 56.3637C18.756 56.01 18.9404 55.6927 19.2305 55.4902C19.8199 55.0791 20.376 54.6106 20.8868 54.0998C23.1537 51.8329 24.4081 48.1485 24.2056 44.4157C23.9214 44.4822 23.6827 44.5336 23.4892 44.5759C23.3744 44.6001 23.2535 44.6122 23.1356 44.6122C22.8364 44.6122 22.5402 44.5336 22.2802 44.3855L21.6757 44.0409L19.968 45.6126C20.6239 47.5893 20.4335 49.5298 19.4058 51.3826C17.0876 55.5567 10.5741 59.0718 1.53375 61.0244C1.43401 61.0455 1.33124 61.0576 1.2315 61.0576L1.23452 61.0546ZM22.1382 56.9984C22.4253 57.0195 22.7155 57.0286 23.0026 57.0286C26.2457 57.0286 29.2985 55.7622 31.6016 53.4621C34.869 50.1947 35.9994 45.3073 34.5214 40.9277C31.3175 42.3362 28.4733 43.2581 26.5601 43.8021C26.7203 45.8423 26.7445 51.6214 22.5794 55.7864C22.3044 56.0614 22.0173 56.3274 21.7211 56.5813L22.1382 56.9984ZM6.51484 50.5121C7.50924 50.5121 8.42204 50.8778 9.02352 51.5156C9.54037 52.0657 9.78821 52.7759 9.73683 53.5678C9.68847 54.4806 9.26834 55.4176 8.48249 56.3667C13.0646 54.5955 14.866 52.7941 16.4679 51.1922C17.4291 50.231 17.9157 48.9132 17.8281 47.5742L14.6152 50.5302C14.2948 50.8264 13.8777 50.9866 13.4424 50.9866C12.98 50.9866 12.5447 50.8053 12.2183 50.4788L10.571 48.8316C9.91213 48.1727 9.89098 47.1178 10.5197 46.4347L13.4696 43.2279C13.3699 43.2218 13.2701 43.2188 13.1704 43.2188C11.9191 43.2188 10.7433 43.7024 9.86377 44.585C9.39226 45.0565 7.76313 47.8039 6.33651 50.5181C6.39394 50.5181 6.45439 50.5151 6.51182 50.5151L6.51484 50.5121ZM13.4636 48.348L27.3913 35.5326C26.7324 34.9492 26.1037 34.3205 25.5203 33.6616L12.7049 47.5893L13.4636 48.348ZM25.5657 30.6542C25.9375 30.6542 26.282 30.8235 26.5087 31.1167C27.5031 32.3982 28.6577 33.5498 29.9392 34.5472C30.2173 34.7618 30.3836 35.0883 30.3987 35.4419C30.4138 35.7925 30.2717 36.131 30.0148 36.3698L23.8489 42.04C26.1732 41.4809 31.2027 40.0633 36.7278 37.2312C33.7839 36.1522 31.0697 34.4203 28.8451 32.1927C26.6175 29.9651 24.8856 27.2539 23.8096 24.31C20.9594 29.8654 19.5449 34.925 18.9917 37.2312L24.6892 31.0381C24.9158 30.7933 25.2362 30.6512 25.5687 30.6512L25.5657 30.6542ZM4.45651 39.3198C4.7104 39.0236 4.97639 38.7364 5.25143 38.4614C8.76358 34.9492 13.391 34.4233 15.8393 34.4233C16.3078 34.4233 16.7793 34.4414 17.2387 34.4807C17.7827 32.5705 18.7046 29.7263 20.1131 26.5195C18.8618 26.0963 17.556 25.8847 16.2231 25.8847C12.989 25.8847 9.83959 27.1814 7.57876 29.4392C5.07915 31.9388 3.79459 35.3814 4.04243 38.9027L4.45954 39.3198H4.45651ZM25.4206 21.3933C26.2518 24.8389 28.02 27.9884 30.5347 30.5061C32.9708 32.9423 36.0115 34.6832 39.3332 35.5447C40.1855 34.6137 40.5241 33.3926 40.2369 32.2501C39.9679 31.1711 39.0249 29.9712 37.1933 29.8503C35.7183 29.7535 34.609 28.9828 34.071 27.6861C33.2489 25.7034 33.9773 22.835 35.8422 20.7072C37.3202 19.0176 36.752 16.7447 35.6004 15.3483C34.7601 14.3297 33.6237 13.7494 32.4812 13.7494C31.8525 13.7494 31.2178 13.9217 30.5921 14.2572C28.7151 16.3729 26.9772 18.7728 25.4206 21.3933ZM33.3789 11.4251C34.9173 11.6548 36.3379 12.492 37.4441 13.828C38.4143 15.0037 39.0068 16.4485 39.1065 17.8993C39.2214 19.5435 38.7136 21.0608 37.6436 22.2819C36.5676 23.509 35.7636 25.5251 36.2835 26.7733C36.4679 27.2177 36.7973 27.4292 37.3565 27.4685C39.9226 27.6378 41.9658 29.2881 42.5612 31.6728C42.7244 32.3287 42.7728 32.9967 42.7003 33.6586C44.5833 32.3438 46.3273 30.9263 47.8869 29.4362C50.7915 26.6615 53.3093 23.2824 55.1832 19.6523C51.9854 18.5944 49.0415 16.7809 46.6537 14.3932C44.2659 12.0054 42.4494 9.06147 41.3915 5.86366C38.4808 7.36282 35.7908 9.23375 33.3789 11.4311V11.4251ZM43.5647 4.82694C44.4896 7.77993 46.1368 10.4972 48.3403 12.6975C50.5406 14.8979 53.2579 16.5452 56.2109 17.4731C56.229 17.4338 56.3438 17.1618 56.3438 17.1618C56.4255 16.9653 56.5071 16.7689 56.5857 16.5724L56.6431 16.4213C56.7005 16.2732 56.761 16.1251 56.8154 15.977L56.9 15.7472C56.9483 15.6203 56.9907 15.4994 57.033 15.3815C57.033 15.3815 57.2053 14.8919 57.2385 14.7891C57.2385 14.7891 57.3987 14.2964 57.4319 14.1997C57.4319 14.1997 57.5801 13.7191 57.6103 13.6103L57.6858 13.3444C57.7161 13.2386 57.7463 13.1328 57.7735 13.027L57.846 12.761C57.8732 12.6552 57.9004 12.5494 57.9276 12.4467L57.9941 12.1807C58.0183 12.0779 58.0425 11.9721 58.0667 11.8694L58.1241 11.6094C58.1453 11.5067 58.1664 11.4039 58.1876 11.3011L58.239 11.0442C58.2571 10.9505 58.3417 10.4881 58.3417 10.4881C58.3599 10.3793 58.378 10.2705 58.3931 10.1617L58.4294 9.93799C58.4445 9.82616 58.4596 9.71735 58.4747 9.60552L58.5019 9.39697C58.5231 9.21864 58.5412 9.04333 58.5593 8.86803C58.786 6.41073 58.4596 4.34938 57.707 3.48797L57.6707 3.44565C57.6707 3.44565 57.5861 3.36102 57.5831 3.36102L57.5377 3.32173C56.9211 2.78373 55.6366 2.45125 54.0195 2.41196C53.9289 2.41196 53.8321 2.40894 53.7384 2.40894C53.7384 2.40894 53.6901 2.40894 53.6871 2.40894L53.672 2.10669V2.40894C51.535 2.418 49.0173 2.88045 46.3938 3.74791C46.2638 3.79022 46.158 3.82649 46.0522 3.86276L45.7379 3.97157C45.7379 3.97157 45.2089 4.16501 45.1152 4.19826L44.9006 4.27987C44.7586 4.33427 44.6286 4.38565 44.4987 4.43704L44.278 4.52771C44.1329 4.58514 44.012 4.63652 43.8881 4.6879L43.5587 4.82996L43.5647 4.82694ZM45.6321 26.7431C44.3113 26.7431 43.072 26.2293 42.1381 25.2984C41.2071 24.3674 40.6933 23.1252 40.6933 21.8043C40.6933 20.4835 41.2071 19.2443 42.1381 18.3103C43.069 17.3794 44.3113 16.8656 45.6321 16.8656C46.9529 16.8656 48.1952 17.3794 49.1261 18.3103C50.057 19.2413 50.5709 20.4835 50.5709 21.8043C50.5709 23.1252 50.057 24.3644 49.1261 25.2984C48.1952 26.2293 46.9529 26.7431 45.6321 26.7431ZM45.6321 19.2564C44.949 19.2564 44.3082 19.5224 43.8277 20.0029C42.8333 20.9973 42.8333 22.6144 43.8277 23.6118C44.3082 24.0924 44.949 24.3584 45.6321 24.3584C46.3152 24.3584 46.9559 24.0924 47.4365 23.6118C48.4309 22.6174 48.4309 21.0004 47.4365 20.0029C46.9559 19.5224 46.3152 19.2564 45.6321 19.2564Z" fill="#6FD08C"/>
<path d="M81.4125 15.4419H76.4707V45.0141H82.2225V32.7004H93.2426V27.7979L82.2225 27.8342V20.3021H93.8078V15.4419H82.2225H81.4125Z" fill="#6FD08C"/>
<path d="M96.4824 15.4419V19.6553H99.2359V45.0141H104.867V19.6553V15.4419H99.2359H96.4824Z" fill="#6FD08C"/>
<path d="M125.081 35.9797C125.081 37.4124 124.67 38.5458 123.845 39.3831C123.02 40.2203 121.962 40.6404 120.666 40.6404C119.369 40.6404 118.341 40.2414 117.586 39.4465C116.83 38.6516 116.452 37.5756 116.452 36.2245V22.9769H110.821V35.7379C110.821 39.0596 111.51 41.5502 112.886 43.2126C114.261 44.8749 116.235 45.7031 118.801 45.7031H119.043C120.744 45.7031 122.156 45.3313 123.277 44.5878C124.398 43.8443 125.248 42.732 125.828 41.2449C125.994 40.8187 126.133 40.3593 126.254 39.8697V45.011H130.709V22.9739H125.078V35.9767L125.081 35.9797Z" fill="#6FD08C"/>
<path d="M135.168 23.0164V27.2297H138.248V45.0141H143.879V27.2297V23.0164H138.248H135.168Z" fill="#6FD08C"/>
<path d="M140.312 20.3837C141.419 20.3837 142.229 20.0995 142.742 19.5343C143.256 18.9661 143.513 18.2256 143.513 17.3068C143.513 16.3879 143.256 15.6867 142.742 15.1185C142.229 14.5502 141.419 14.2661 140.312 14.2661C139.206 14.2661 138.387 14.5502 137.861 15.1185C137.335 15.6867 137.072 16.4151 137.072 17.3068C137.072 18.1984 137.335 18.9661 137.861 19.5343C138.387 20.1026 139.203 20.3837 140.312 20.3837Z" fill="#6FD08C"/>
<path d="M166.602 26.1174C165.88 24.9628 164.964 24.0681 163.849 23.4425C162.525 22.6989 160.998 22.3272 159.273 22.3272C157.707 22.3272 156.289 22.6173 155.02 23.1976C153.75 23.778 152.656 24.5819 151.737 25.6066C150.819 26.6342 150.117 27.8342 149.631 29.2124C149.144 30.5907 148.902 32.0626 148.902 33.6283V34.4776C148.902 36.0705 149.159 37.5576 149.673 38.9328C150.187 40.3111 150.915 41.505 151.861 42.5175C152.807 43.53 153.92 44.3189 155.204 44.8871C156.486 45.4554 157.912 45.7365 159.478 45.7365C161.18 45.7365 162.712 45.3647 164.075 44.6212C165.438 43.8776 166.539 42.7563 167.376 41.2601C167.524 40.9941 167.657 40.7131 167.781 40.4259V45.008H172.278V15.4419H166.608V26.1174H166.602ZM166.765 34.6832C166.765 35.9798 166.487 37.1072 165.934 38.0653C165.381 39.0235 164.653 39.7519 163.746 40.2536C162.842 40.7523 161.836 41.0032 160.729 41.0032C159.542 41.0032 158.481 40.7191 157.55 40.1539C156.619 39.5857 155.881 38.7847 155.343 37.745C154.802 36.7052 154.533 35.4841 154.533 34.0787C154.533 32.6732 154.796 31.4521 155.322 30.4124C155.848 29.3726 156.576 28.5565 157.51 27.9611C158.441 27.3687 159.514 27.0695 160.732 27.0695C161.784 27.0695 162.773 27.3052 163.688 27.7798C164.607 28.2513 165.351 28.9344 165.916 29.826C166.484 30.7176 166.765 31.7967 166.765 33.0661V34.6862V34.6832Z" fill="#6FD08C"/>
<path d="M196.114 28.9312C194.533 28.2028 192.677 27.7554 190.543 27.5953L187.992 27.3534C186.532 27.2446 185.465 26.8457 184.791 26.1596C184.117 25.4704 183.779 24.6664 183.779 23.7506C183.779 22.995 183.966 22.2998 184.347 21.6651C184.725 21.0304 185.284 20.5165 186.028 20.1266C186.771 19.7367 187.708 19.5403 188.842 19.5403C189.975 19.5403 191.015 19.7579 191.798 20.1871C192.58 20.6193 193.161 21.1785 193.539 21.8676C193.916 22.5567 194.107 23.2912 194.107 24.074H199.738C199.738 22.1578 199.299 20.4893 198.42 19.0718C197.543 17.6542 196.286 16.554 194.654 15.7712C193.019 14.9884 191.081 14.5955 188.842 14.5955C186.602 14.5955 184.797 14.9672 183.189 15.7108C181.582 16.4543 180.333 17.5061 179.442 18.8693C178.55 20.2324 178.106 21.8616 178.106 23.7506C178.106 26.2623 178.949 28.2814 180.638 29.8077C182.325 31.3341 184.589 32.2167 187.424 32.4615L190.017 32.7033C191.906 32.8665 193.3 33.2655 194.188 33.8972C195.08 34.5319 195.524 35.3631 195.524 36.3877C195.524 37.2249 195.289 37.9745 194.814 38.6365C194.343 39.2984 193.638 39.8303 192.707 40.2354C191.776 40.6404 190.595 40.8429 189.162 40.8429C187.624 40.8429 186.372 40.6132 185.414 40.1538C184.456 39.6943 183.761 39.0929 183.329 38.3523C182.896 37.6088 182.682 36.8471 182.682 36.0643H177.051C177.051 37.9292 177.516 39.5946 178.447 41.0666C179.378 42.5385 180.75 43.6931 182.558 44.5303C184.365 45.3676 186.569 45.7877 189.162 45.7877C191.619 45.7877 193.747 45.3948 195.542 44.612C197.338 43.8291 198.722 42.7289 199.695 41.3114C200.669 39.8938 201.152 38.2526 201.152 36.3907C201.152 34.6347 200.708 33.1355 199.816 31.8933C198.925 30.651 197.688 29.6657 196.111 28.9372L196.114 28.9312Z" fill="#6FD08C"/>
<path d="M221.554 23.8081C219.946 22.7684 217.955 22.2485 215.579 22.2485C213.768 22.2485 212.169 22.5659 210.779 23.2006C209.389 23.8354 208.234 24.6877 207.315 25.7516C206.397 26.8186 205.701 28.0336 205.23 29.3968C204.758 30.7599 204.52 32.1714 204.52 33.6313V34.402C204.52 35.8075 204.755 37.1827 205.23 38.5338C205.701 39.8848 206.406 41.1059 207.336 42.2001C208.267 43.2942 209.443 44.1647 210.861 44.8115C212.278 45.4583 213.932 45.7848 215.824 45.7848C217.716 45.7848 219.248 45.4735 220.666 44.8538C222.083 44.2342 223.25 43.3547 224.169 42.2212C225.088 41.0878 225.707 39.7639 226.034 38.2527H220.808C220.566 39.0627 220.01 39.7458 219.145 40.2989C218.281 40.8521 217.175 41.1301 215.824 41.1301C214.473 41.1301 213.312 40.8248 212.42 40.2173C211.529 39.6098 210.867 38.7726 210.435 37.7056C210.153 37.0104 209.963 36.2458 209.866 35.4176H226.396V33.3532C226.396 31.4097 225.991 29.5932 225.181 27.9036C224.371 26.2171 223.162 24.8509 221.554 23.8112V23.8081ZM212.42 27.7767C213.285 27.1964 214.337 26.9062 215.579 26.9062C216.821 26.9062 217.849 27.1752 218.659 27.7162C219.469 28.2573 220.082 29.025 220.503 30.0254C220.741 30.5937 220.908 31.2314 221.01 31.9296H209.963C210.075 31.31 210.238 30.7448 210.456 30.2279C210.9 29.1761 211.556 28.357 212.42 27.7767Z" fill="#6FD08C"/>
<path d="M243.328 22.3301H243.086C241.33 22.3301 239.864 22.7079 238.691 23.4635C237.516 24.2191 236.633 25.3465 236.037 26.8457C235.841 27.3384 235.684 27.8734 235.551 28.4476V23.0192H231.096V45.017H236.727V32.0958C236.727 30.6933 237.153 29.5569 238.002 28.6925C238.851 27.828 239.967 27.3958 241.345 27.3958C242.723 27.3958 243.721 27.8159 244.504 28.6532C245.286 29.4904 245.679 30.5845 245.679 31.9356V45.02H251.31V32.4222C251.31 29.0733 250.636 26.5555 249.285 24.866C247.934 23.1794 245.948 22.3331 243.331 22.3331L243.328 22.3301Z" fill="#6FD08C"/>
<path d="M272.716 33.8337C271.244 32.6731 269.212 31.9568 266.619 31.6878L264.676 31.4853C263.488 31.3492 262.629 31.0954 262.104 30.7145C261.578 30.3367 261.315 29.7957 261.315 29.0945C261.315 28.3932 261.638 27.7706 262.288 27.3112C262.935 26.8518 263.854 26.622 265.041 26.622C266.365 26.622 267.372 26.8911 268.061 27.4321C268.75 27.9731 269.134 28.635 269.216 29.4179H274.278C274.197 27.0966 273.32 25.3405 271.646 24.1527C269.971 22.9648 267.783 22.3694 265.084 22.3694C263.328 22.3694 261.783 22.6323 260.444 23.1583C259.105 23.6842 258.059 24.461 257.304 25.4886C256.548 26.5163 256.17 27.7827 256.17 29.297C256.17 31.186 256.832 32.7064 258.156 33.8549C259.48 35.0035 261.384 35.6986 263.869 35.9404L265.773 36.1429C267.257 36.3062 268.306 36.6024 268.913 37.0346C269.521 37.4668 269.826 38.035 269.826 38.7362C269.826 39.5735 269.421 40.2354 268.611 40.722C267.801 41.2087 266.734 41.4505 265.41 41.4505C263.79 41.4505 262.602 41.1391 261.847 40.5195C261.091 39.8999 260.671 39.2108 260.592 38.4552H255.487C255.596 40.722 256.506 42.4993 258.223 43.7808C259.936 45.0623 262.306 45.7061 265.332 45.7061C267.275 45.7061 268.965 45.416 270.394 44.8357C271.824 44.2553 272.939 43.4242 273.737 42.3451C274.532 41.2661 274.931 39.9966 274.931 38.5368C274.931 36.5661 274.194 35.0004 272.725 33.8368L272.716 33.8337Z" fill="#6FD08C"/>
<path d="M300 33.3473C300 31.4038 299.595 29.5873 298.785 27.8977C297.975 26.2111 296.766 24.845 295.158 23.8052C293.55 22.7655 291.558 22.2456 289.182 22.2456C287.372 22.2456 285.773 22.563 284.383 23.1977C282.992 23.8324 281.838 24.6848 280.919 25.7487C280 26.8156 279.305 28.0307 278.833 29.3938C278.362 30.757 278.123 32.1685 278.123 33.6284V34.3991C278.123 35.8046 278.359 37.1798 278.833 38.5309C279.305 39.8819 280.009 41.103 280.94 42.1972C281.871 43.2913 283.047 44.1618 284.464 44.8086C285.882 45.4554 287.535 45.7818 289.427 45.7818C291.319 45.7818 292.852 45.4705 294.269 44.8509C295.687 44.2313 296.854 43.3518 297.772 42.2183C298.691 41.0849 299.311 39.761 299.637 38.2498H294.411C294.17 39.0598 293.613 39.7429 292.749 40.296C291.885 40.8491 290.778 41.1272 289.427 41.1272C288.076 41.1272 286.916 40.8219 286.024 40.2144C285.132 39.6069 284.47 38.7696 284.038 37.7027C283.757 37.0075 283.567 36.2428 283.47 35.4147H300V33.3503V33.3473ZM286.024 27.7768C286.888 27.1965 287.94 26.9063 289.182 26.9063C290.425 26.9063 291.452 27.1753 292.262 27.7163C293.072 28.2574 293.686 29.0251 294.106 30.0255C294.345 30.5938 294.511 31.2315 294.614 31.9297H283.567C283.678 31.3101 283.842 30.7449 284.059 30.228C284.504 29.1762 285.159 28.3571 286.024 27.7768Z" fill="#6FD08C"/>
</svg>
