<svg width="150" height="36" viewBox="0 0 150 36" fill="none" xmlns="http://www.w3.org/2000/svg">
<path fill-rule="evenodd" clip-rule="evenodd" d="M56.1799 19.8189V12.9426H59.528V20.0979C59.528 20.8089 59.744 21.385 60.1851 21.808C60.6261 22.24 61.1841 22.456 61.8591 22.456C62.5342 22.456 63.0652 22.24 63.4972 21.799C63.9292 21.358 64.1452 20.7909 64.1452 20.0979V12.9426H67.4933V19.8189C67.4933 21.511 66.9623 22.879 65.8913 23.9411C64.8202 25.0031 63.4792 25.5341 61.8591 25.5341C60.2391 25.5341 58.844 25.0121 57.773 23.9591C56.7019 22.906 56.1709 21.529 56.1709 19.8279" fill="white"/>
<path fill-rule="evenodd" clip-rule="evenodd" d="M78.591 19.0986C78.591 18.0906 78.294 17.2715 77.7 16.6415C77.106 16.0115 76.3409 15.6965 75.4139 15.6965C74.4869 15.6965 73.7758 15.9935 73.1908 16.5875C72.6058 17.1815 72.3088 18.0096 72.3088 19.0716C72.3088 20.1337 72.6058 20.9617 73.1908 21.5647C73.7758 22.1677 74.5229 22.4738 75.4139 22.4738C76.3049 22.4738 77.079 22.1587 77.682 21.5287C78.285 20.8987 78.591 20.0887 78.591 19.0986ZM80.2921 14.4904C81.4261 15.7055 81.9932 17.2355 81.9932 19.0716C81.9932 20.9077 81.4261 22.4468 80.2921 23.6798C79.1581 24.9129 77.736 25.5339 76.0349 25.5339C74.4959 25.5339 73.2718 25.0389 72.3628 24.0398V29.701H69.0146V12.9424H72.0928V14.4814C72.9388 13.2754 74.2529 12.6724 76.0439 12.6724C77.835 12.6724 79.1671 13.2844 80.3011 14.4994L80.2921 14.4904Z" fill="white"/>
<path fill-rule="evenodd" clip-rule="evenodd" d="M86.5924 17.8565H92.1817C92.1637 17.1095 91.9026 16.5155 91.3986 16.0564C90.8946 15.5974 90.2646 15.3724 89.5266 15.3724C88.7885 15.3724 88.1945 15.5974 87.6635 16.0384C87.1325 16.4885 86.7814 17.0915 86.5924 17.8475V17.8565ZM95.2058 20.2146H86.5924C86.7904 20.9886 87.1955 21.5917 87.7985 22.0147C88.4015 22.4377 89.1485 22.6447 90.0486 22.6447C91.2546 22.6447 92.3977 22.2307 93.4777 21.4027L94.8638 23.6888C93.3877 24.9128 91.7496 25.5248 89.9496 25.5248C88.0595 25.5608 86.4574 24.9398 85.1434 23.6708C83.8293 22.4017 83.1903 20.8806 83.2173 19.0896C83.1813 17.3165 83.8023 15.7954 85.0804 14.5174C86.3584 13.2393 87.8795 12.6183 89.6526 12.6543C91.3446 12.6543 92.7307 13.2033 93.8107 14.2924C94.8908 15.3814 95.4398 16.7405 95.4398 18.3605C95.4398 18.9546 95.3678 19.5666 95.2148 20.1966L95.2058 20.2146Z" fill="white"/>
<path fill-rule="evenodd" clip-rule="evenodd" d="M104.44 12.9426V15.8947H103.549C102.523 15.8947 101.713 16.1647 101.128 16.7137C100.543 17.2627 100.246 18.0548 100.246 19.0988V25.228H96.8975V12.9336H99.9756V14.4006C100.84 13.3206 101.965 12.7896 103.351 12.7896C103.765 12.7896 104.125 12.8436 104.44 12.9336" fill="white"/>
<path fill-rule="evenodd" clip-rule="evenodd" d="M113.944 25.2278H117.293V6.30908H113.944V25.2278ZM112.342 6.30908V9.3152H111.532C110.758 9.3152 110.191 9.46821 109.831 9.76522C109.471 10.0622 109.3 10.5483 109.3 11.2323V12.9423H112.342V15.7775H109.3V25.2368H105.952V10.9353C105.952 9.41421 106.366 8.26216 107.194 7.47913C108.022 6.7051 109.192 6.30908 110.695 6.30908H112.342Z" fill="white"/>
<path fill-rule="evenodd" clip-rule="evenodd" d="M118.931 19.8189V12.9426H122.279V20.0979C122.279 20.8089 122.495 21.385 122.936 21.808C123.377 22.24 123.935 22.456 124.61 22.456C125.285 22.456 125.816 22.24 126.248 21.799C126.68 21.358 126.896 20.7909 126.896 20.0979V12.9426H130.244V19.8189C130.244 21.511 129.713 22.879 128.642 23.9411C127.571 25.0031 126.23 25.5341 124.61 25.5341C122.99 25.5341 121.595 25.0121 120.524 23.9591C119.453 22.906 118.922 21.529 118.922 19.8279" fill="white"/>
<path fill-rule="evenodd" clip-rule="evenodd" d="M131.882 25.2281H135.239V12.9426H131.882V25.2281Z" fill="white"/>
<path fill-rule="evenodd" clip-rule="evenodd" d="M145.824 21.5827C146.409 20.9887 146.706 20.1606 146.706 19.0986C146.706 18.0365 146.409 17.2085 145.815 16.6055C145.221 16.0025 144.483 15.6965 143.601 15.6965C142.719 15.6965 141.936 16.0115 141.333 16.6415C140.73 17.2715 140.424 18.0816 140.424 19.0716C140.424 20.0616 140.721 20.8987 141.315 21.5287C141.909 22.1587 142.674 22.4737 143.601 22.4737C144.528 22.4737 145.239 22.1767 145.824 21.5827ZM146.652 6.30908H150V25.2278H146.922V23.7158C146.076 24.9218 144.762 25.5249 142.971 25.5249C141.18 25.5249 139.821 24.9128 138.696 23.6978C137.571 22.4827 137.004 20.9437 137.004 19.0896C137.004 17.2355 137.562 15.6965 138.696 14.4814C139.821 13.2664 141.243 12.6543 142.971 12.6543C144.528 12.6543 145.752 13.1404 146.643 14.1214V6.30908H146.652Z" fill="white"/>
<path fill-rule="evenodd" clip-rule="evenodd" d="M50.9326 15.8227L49.0695 15.0037C48.3405 14.6707 47.8365 14.3827 47.5665 14.1217C47.2965 13.8697 47.1525 13.5276 47.1525 13.1136C47.1525 13.0506 47.1615 12.9966 47.1705 12.9426H43.7593C43.7593 13.0236 43.7503 13.1046 43.7503 13.1946C43.7503 15.1657 45.0734 16.7408 47.7195 17.9108L49.4836 18.7029C50.3116 19.0809 50.8696 19.4049 51.1486 19.6569C51.4276 19.9089 51.5716 20.2779 51.5716 20.7369C51.5716 21.304 51.3646 21.745 50.9506 22.069C50.5366 22.393 49.9696 22.555 49.2406 22.555C47.7195 22.555 46.3784 21.763 45.2174 20.1699L42.9043 21.907C43.5523 23.032 44.4254 23.9141 45.5234 24.5621C46.6214 25.2101 47.8635 25.5341 49.2316 25.5341C50.9056 25.5341 52.2737 25.0841 53.3537 24.1841C54.4338 23.284 54.9648 22.096 54.9648 20.6199C54.9648 19.5309 54.6408 18.6129 53.9927 17.8748C53.3447 17.1368 52.3187 16.4528 50.9146 15.8227" fill="white"/>
<path fill-rule="evenodd" clip-rule="evenodd" d="M54.9837 8.06445H50.1055V10.5036H52.5446V12.9426H54.9837V8.06445Z" fill="white"/>
<path fill-rule="evenodd" clip-rule="evenodd" d="M135.239 12.9423H138.929V9.24316H135.239V12.9423Z" fill="white"/>
<path fill-rule="evenodd" clip-rule="evenodd" d="M27.6311 21.1148H21.1148V14.5986H14.5986V8.08232H27.6311V21.1148ZM8.08232 27.6311H14.5986V21.1148H8.08232V27.6311ZM0 3.90616V31.8163C0 33.9674 1.74607 35.7224 3.90616 35.7224H31.8073C33.9674 35.7224 35.7134 33.9764 35.7134 31.8163V3.90616C35.7134 1.74607 33.9674 0 31.8073 0H3.90616C1.74607 0 0 1.74607 0 3.90616Z" fill="white"/>
</svg>
