<svg width="301" height="72" viewBox="0 0 301 72" fill="none" xmlns="http://www.w3.org/2000/svg">
<path fill-rule="evenodd" clip-rule="evenodd" d="M113.331 39.6378V25.8853H120.028V40.1958C120.028 41.6179 120.46 42.7699 121.342 43.616C122.224 44.48 123.34 44.912 124.69 44.912C126.04 44.912 127.102 44.48 127.966 43.598C128.83 42.7159 129.262 41.5819 129.262 40.1958V25.8853H135.958V39.6378C135.958 43.0219 134.896 45.758 132.754 47.8821C130.612 50.0062 127.93 51.0683 124.69 51.0683C121.45 51.0683 118.66 50.0242 116.518 47.9181C114.376 45.812 113.313 43.0579 113.313 39.6558" fill="#001B2E"/>
<path fill-rule="evenodd" clip-rule="evenodd" d="M158.153 38.1972C158.153 36.1812 157.559 34.5431 156.371 33.283C155.183 32.023 153.653 31.393 151.799 31.393C149.944 31.393 148.522 31.987 147.352 33.175C146.182 34.3631 145.588 36.0192 145.588 38.1432C145.588 40.2673 146.182 41.9234 147.352 43.1294C148.522 44.3355 150.016 44.9475 151.799 44.9475C153.581 44.9475 155.129 44.3175 156.335 43.0574C157.541 41.7974 158.153 40.1773 158.153 38.1972ZM161.555 28.9809C163.823 31.411 164.957 34.4711 164.957 38.1432C164.957 41.8154 163.823 44.8935 161.555 47.3596C159.287 49.8257 156.443 51.0678 153.041 51.0678C149.962 51.0678 147.514 50.0777 145.696 48.0796V59.4021H139V25.8847H145.156V28.9629C146.848 26.5508 149.476 25.3447 153.059 25.3447C156.641 25.3447 159.305 26.5688 161.573 28.9989L161.555 28.9809Z" fill="#001B2E"/>
<path fill-rule="evenodd" clip-rule="evenodd" d="M174.156 35.7133H185.334C185.298 34.2192 184.776 33.0312 183.768 32.1131C182.76 31.1951 181.5 30.7451 180.024 30.7451C178.548 30.7451 177.36 31.1951 176.298 32.0771C175.236 32.9772 174.534 34.1832 174.156 35.6953V35.7133ZM191.382 40.4295H174.156C174.552 41.9775 175.362 43.1836 176.568 44.0296C177.774 44.8756 179.268 45.2897 181.068 45.2897C183.48 45.2897 185.766 44.4616 187.926 42.8056L190.698 47.3777C187.746 49.8258 184.47 51.0499 180.87 51.0499C177.09 51.1219 173.886 49.8798 171.257 47.3417C168.629 44.8036 167.351 41.7615 167.405 38.1794C167.333 34.6332 168.575 31.5911 171.131 29.035C173.688 26.4789 176.73 25.2369 180.276 25.3089C183.66 25.3089 186.432 26.4069 188.592 28.585C190.752 30.7631 191.85 33.4812 191.85 36.7213C191.85 37.9094 191.706 39.1334 191.4 40.3935L191.382 40.4295Z" fill="#001B2E"/>
<path fill-rule="evenodd" clip-rule="evenodd" d="M209.851 25.8851V31.7893H208.069C206.017 31.7893 204.397 32.3294 203.227 33.4274C202.057 34.5255 201.463 36.1095 201.463 38.1976V50.4561H194.767V25.8671H200.923V28.8012C202.651 26.6411 204.901 25.5791 207.673 25.5791C208.501 25.5791 209.221 25.6871 209.851 25.8671" fill="#001B2E"/>
<path fill-rule="evenodd" clip-rule="evenodd" d="M228.86 50.4557H235.556V12.6182H228.86V50.4557ZM225.656 12.6182V18.6304H224.035C222.487 18.6304 221.353 18.9364 220.633 19.5304C219.913 20.1245 219.571 21.0965 219.571 22.4646V25.8847H225.656V31.5549H219.571V50.4737H212.875V21.8705C212.875 18.8284 213.703 16.5243 215.359 14.9583C217.015 13.4102 219.355 12.6182 222.361 12.6182H225.656Z" fill="#001B2E"/>
<path fill-rule="evenodd" clip-rule="evenodd" d="M238.832 39.6378V25.8853H245.529V40.1958C245.529 41.6179 245.961 42.7699 246.843 43.616C247.725 44.48 248.841 44.912 250.191 44.912C251.541 44.912 252.603 44.48 253.467 43.598C254.331 42.7159 254.763 41.5819 254.763 40.1958V25.8853H261.459V39.6378C261.459 43.0219 260.397 45.758 258.255 47.8821C256.113 50.0062 253.431 51.0683 250.191 51.0683C246.951 51.0683 244.161 50.0242 242.019 47.9181C239.876 45.812 238.814 43.0579 238.814 39.6558" fill="#001B2E"/>
<path fill-rule="evenodd" clip-rule="evenodd" d="M264.735 50.4562H271.45V25.8853H264.735V50.4562Z" fill="#001B2E"/>
<path fill-rule="evenodd" clip-rule="evenodd" d="M292.618 43.1654C293.788 41.9773 294.382 40.3213 294.382 38.1972C294.382 36.0731 293.788 34.417 292.6 33.211C291.412 32.0049 289.936 31.3929 288.172 31.3929C286.408 31.3929 284.842 32.0229 283.636 33.283C282.43 34.543 281.818 36.1631 281.818 38.1432C281.818 40.1233 282.412 41.7973 283.6 43.0574C284.788 44.3174 286.318 44.9475 288.172 44.9475C290.026 44.9475 291.448 44.3534 292.618 43.1654ZM294.274 12.6182H300.971V50.4557H294.814V47.4316C293.122 49.8437 290.494 51.0497 286.912 51.0497C283.33 51.0497 280.612 49.8256 278.362 47.3955C276.112 44.9655 274.978 41.8873 274.978 38.1792C274.978 34.471 276.094 31.3929 278.362 28.9628C280.612 26.5327 283.456 25.3087 286.912 25.3087C290.026 25.3087 292.474 26.2807 294.256 28.2428V12.6182H294.274Z" fill="#001B2E"/>
<path fill-rule="evenodd" clip-rule="evenodd" d="M102.837 31.6455L99.1108 30.0074C97.6527 29.3414 96.6447 28.7654 96.1046 28.2433C95.5646 27.7393 95.2766 27.0553 95.2766 26.2273C95.2766 26.1013 95.2946 25.9933 95.3126 25.8853H88.4903C88.4903 26.0473 88.4723 26.2093 88.4723 26.3893C88.4723 30.3314 91.1185 33.4816 96.4107 35.8216L99.9388 37.4057C101.595 38.1617 102.711 38.8098 103.269 39.3138C103.827 39.8178 104.115 40.5558 104.115 41.4739C104.115 42.6079 103.701 43.49 102.873 44.138C102.045 44.786 100.911 45.11 99.4528 45.11C96.4107 45.11 93.7286 43.526 91.4065 40.3398L86.7803 43.814C88.0763 46.0641 89.8224 47.8281 92.0185 49.1242C94.2146 50.4202 96.6987 51.0683 99.4348 51.0683C102.783 51.0683 105.519 50.1682 107.679 48.3682C109.839 46.5681 110.901 44.192 110.901 41.2399C110.901 39.0618 110.253 37.2257 108.957 35.7496C107.661 34.2736 105.609 32.9055 102.801 31.6455" fill="#001B2E"/>
<path fill-rule="evenodd" clip-rule="evenodd" d="M110.937 16.1287H101.181V21.0069H106.059V25.8851H110.937V16.1287Z" fill="#001B2E"/>
<path fill-rule="evenodd" clip-rule="evenodd" d="M271.449 25.8846H278.83V18.4863H271.449V25.8846Z" fill="#001B2E"/>
<path fill-rule="evenodd" clip-rule="evenodd" d="M56.2329 42.2297H43.2004V29.1972H30.1679V16.1646H56.2329V42.2297ZM17.1353 55.2622H30.1679V42.2297H17.1353V55.2622ZM0.970703 7.81231V63.6325C0.970703 67.9347 4.46284 71.4448 8.78302 71.4448H64.5852C68.9054 71.4448 72.3976 67.9527 72.3976 63.6325V7.81231C72.3976 3.49214 68.9054 0 64.5852 0H8.78302C4.46284 0 0.970703 3.49214 0.970703 7.81231Z" fill="#001B2E"/>
</svg>
