<svg width="42" height="34" viewBox="0 0 42 34" fill="none" xmlns="http://www.w3.org/2000/svg">
<g clip-path="url(#clip0_10_251)">
<path d="M37.0651 8.22951C37.0897 8.58816 37.0897 8.94681 37.0897 9.30876C37.0897 20.3376 28.7845 33.0572 13.598 33.0572V33.0506C9.1119 33.0572 4.71897 31.7582 0.942383 29.3088C1.5947 29.3881 2.25029 29.4278 2.90751 29.4294C6.62524 29.4327 10.2367 28.1717 13.1615 25.8495C9.62852 25.7818 6.53042 23.4531 5.44812 20.0533C6.68573 20.2946 7.96094 20.2451 9.17566 19.9095C5.32387 19.1228 2.55274 15.7016 2.55274 11.7284V11.6226C3.70043 12.2688 4.98545 12.6275 6.2999 12.6672C2.67209 10.2161 1.55383 5.33719 3.74457 1.52262C7.93642 6.73707 14.1212 9.90706 20.7604 10.2426C20.095 7.34363 21.004 4.30587 23.149 2.26802C26.4744 -0.892055 31.7044 -0.730085 34.8303 2.62997C36.6793 2.2614 38.4515 1.57551 40.0733 0.60369C39.457 2.53576 38.1671 4.17695 36.4439 5.21984C38.0804 5.02481 39.6793 4.58188 41.1851 3.9059C40.0766 5.58179 38.682 7.04448 37.0668 8.2262L37.0651 8.22951Z" fill="#001B2E"/>
</g>
<defs>
<clipPath id="clip0_10_251">
<rect width="41.555" height="34" fill="white"/>
</clipPath>
</defs>
</svg>
